<?xml version="1.0" encoding="UTF-8" standalone="no"?><!DOCTYPE svg PUBLIC "-//W3C//DTD SVG 1.1//EN" "http://www.w3.org/Graphics/SVG/1.1/DTD/svg11.dtd"><svg width="100%" height="100%" viewBox="0 0 948 4340" version="1.1" xmlns="http://www.w3.org/2000/svg" xmlns:xlink="http://www.w3.org/1999/xlink" xml:space="preserve" xmlns:serif="http://www.serif.com/" style="fill-rule:evenodd;clip-rule:evenodd;stroke-linejoin:round;stroke-miterlimit:2;"><rect id="Prancheta1" x="0" y="0" width="947.686" height="4339.725" style="fill:none;"/><clipPath id="_clip1"><rect x="0" y="0" width="947.686" height="4339.725"/></clipPath><g clip-path="url(#_clip1)"><g><path id="positivo" d="M641.203,1345.761l-2.785,493.002c0,0 -34.352,151.011 6.499,266.138l0,2235.342l58.268,0l0,-2238.187c0,0 33.424,-165.262 -1.857,-263.677l0,-540.352l-59.42,0l-0.704,47.735Z" style="fill:#7b7b7b;"/><path id="negativo" d="M280.798,1429.066l-2.785,393.181c0,0 -34.352,120.435 6.499,212.251l0,1782.739l58.268,0l0,-1785.008c0,0 33.424,-131.801 -1.857,-210.289l0,-430.944l-59.42,0l-0.704,38.07Z" style="fill:#7b7b7b;"/><path id="luz-led" d="M703.875,1438.822l150.872,0l68.413,-16.248l0,-163.638l-54.487,-26.693l-5.803,-911.033c0,0 -83.3,-326.709 -393.877,-320.609c-310.577,6.1 -382.531,304.361 -382.531,304.361l-16.248,926.12l-55.388,30.174l0,155.514l69.314,17.408l198.454,3.482l421.28,1.161Z"/><path d="M533.231,1065.066c0,0 1.783,-142.014 -4.754,-155.087c0,0 -9.507,-16.638 -4.754,-36.841c0,0 68.927,13.072 93.29,1.188l-0.594,-424.855c0,0 -26.739,-83.188 -49.319,-105.768l-86.754,24.362l-1.188,642.332c0,0 -1.783,33.87 6.536,39.812l47.536,14.855Z" style="fill:#fff;"/></g></g></svg>