<?xml version="1.0" encoding="UTF-8" standalone="no"?><!DOCTYPE svg PUBLIC "-//W3C//DTD SVG 1.1//EN" "http://www.w3.org/Graphics/SVG/1.1/DTD/svg11.dtd"><svg width="100%" height="100%" viewBox="0 0 2619 823" version="1.1" xmlns="http://www.w3.org/2000/svg" xmlns:xlink="http://www.w3.org/1999/xlink" xml:space="preserve" xmlns:serif="http://www.serif.com/" style="fill-rule:evenodd;clip-rule:evenodd;stroke-linejoin:round;stroke-miterlimit:2;"><rect id="Prancheta1" x="0" y="0" width="2618.71" height="822.663" style="fill:none;"/><path id="Detalhe-1" serif:id="Detalhe 1" d="M584.451,235.691l106.849,0.844c0,0 9.28,30.654 43.027,26.716c33.747,-3.937 35.716,-27.56 35.716,-27.56c-0,0 12.784,-41.487 -29.779,-52.979c-7.525,-2.118 -15.507,-1.972 -22.949,0.422c-9.037,2.803 -20.65,8.904 -24.89,21.622l-107.974,0l0,30.935Zm149.293,-31.219c9.973,0 18.07,8.039 18.07,17.941c0,9.902 -8.097,17.941 -18.07,17.941c-9.973,0 -18.07,-8.039 -18.07,-17.941c0,-9.902 8.097,-17.941 18.07,-17.941Z" style="fill:#fa9b1f;"/><path id="Detalhe-11" serif:id="Detalhe 1" d="M543.586,359.166l106.849,0.844c0,0 9.28,30.654 43.027,26.716c33.747,-3.937 35.716,-27.56 35.716,-27.56c-0,0 12.784,-41.487 -29.779,-52.979c-7.525,-2.118 -15.507,-1.972 -22.949,0.422c-9.037,2.803 -20.65,8.904 -24.89,21.622l-107.974,0l0,30.935Zm149.293,-31.219c9.973,0 18.07,8.039 18.07,17.941c0,9.902 -8.097,17.941 -18.07,17.941c-9.973,0 -18.07,-8.039 -18.07,-17.941c0,-9.902 8.097,-17.941 18.07,-17.941Z" style="fill:#fa9b1f;"/><path id="Detalhe-12" serif:id="Detalhe 1" d="M584.451,491.183l106.849,0.844c0,0 9.28,30.654 43.027,26.716c33.747,-3.937 35.716,-27.56 35.716,-27.56c-0,0 12.784,-41.487 -29.779,-52.979c-7.525,-2.118 -15.507,-1.972 -22.949,0.422c-9.037,2.803 -20.65,8.904 -24.89,21.622l-107.974,0l0,30.935Zm149.293,-31.219c9.973,0 18.07,8.039 18.07,17.941c0,9.902 -8.097,17.941 -18.07,17.941c-9.973,0 -18.07,-8.039 -18.07,-17.941c0,-9.902 8.097,-17.941 18.07,-17.941Z" style="fill:#fa9b1f;"/><path id="Detalhe-13" serif:id="Detalhe 1" d="M357.516,632.477l-0.844,106.849c0,0 -30.654,9.28 -26.716,43.027c3.937,33.747 27.56,35.716 27.56,35.716c0,-0 41.487,12.784 52.979,-29.779c2.118,-7.525 1.972,-15.507 -0.422,-22.949c-2.803,-9.037 -8.904,-20.65 -21.622,-24.89l0,-107.974l-30.935,0Zm31.219,149.293c0,9.973 -8.039,18.07 -17.941,18.07c-9.902,0 -17.941,-8.097 -17.941,-18.07c0,-9.973 8.039,-18.07 17.941,-18.07c9.902,0 17.941,8.097 17.941,18.07Z" style="fill:#fa9b1f;"/><path id="Detalhe-14" serif:id="Detalhe 1" d="M200.206,632.477l-0.844,106.849c0,0 -30.654,9.28 -26.716,43.027c3.937,33.747 27.56,35.716 27.56,35.716c0,-0 41.487,12.784 52.979,-29.779c2.118,-7.525 1.972,-15.507 -0.422,-22.949c-2.803,-9.037 -8.904,-20.65 -21.622,-24.89l0,-107.974l-30.935,0Zm31.219,149.293c0,9.973 -8.039,18.07 -17.941,18.07c-9.902,0 -17.941,-8.097 -17.941,-18.07c0,-9.973 8.039,-18.07 17.941,-18.07c9.902,0 17.941,8.097 17.941,18.07Z" style="fill:#fa9b1f;"/><path id="Bloco" d="M8.406,601.555c0,0 -4.806,19.224 37.076,43.941l486.789,1.373c0,0 37.076,2.746 52.18,-54.927l-0.687,-451.086c0,0 -5.493,-41.137 -45.315,-46.688l-151.735,-1.432l-1.373,-48.061c0,0 -7.552,-36.389 -43.941,-36.389l-98.182,0c0,0 -28.15,4.12 -34.329,36.389l-1.373,48.061l-149.676,0c0,0 -36.389,0.687 -51.494,46.688l1.373,155.168c0,0 70.032,-12.359 74.838,37.076l-2.06,78.957c0,0 -8.926,26.09 -30.21,26.777l-42.568,0l0.687,164.152Z" style="fill:url(#_Linear1);"/><path id="B" d="M342.135,260.716c0,0 -5.273,-35.593 -30.32,-48.336l111.172,0c0,0 43.063,4.834 58.442,56.684l0,58.524c0,0 -4.394,22.329 -21.092,31.996c0,0 33.395,19.774 33.835,48.775l0,45.26c0,0 -4.834,58.442 -69.867,65.473l-87.883,0l-21.531,-45.26l106.338,0.879c0,0 30.759,-15.819 26.804,-34.714l0,-25.047c0,0 -2.197,-28.562 -33.835,-28.562l-87.443,0c0,0 22.85,-25.486 17.137,-44.82c-5.712,-19.334 0.314,1.187 0.314,1.187l70.872,0c0,0 22.85,-11.733 18.895,-31.507l0,-28.123c0,0 3.076,-21.971 -25.925,-21.531l-65.912,-0.879Z" style="fill:url(#_Linear2);"/><path id="R" d="M149.233,404.844l0,-47.896l97.111,0c0,0 21.092,-3.352 24.607,-29.359l0,-44.462c0,0 -5.273,-22.41 -28.562,-25.925l-138.855,0l0,-44.82l156.871,0c0,0 47.017,6.591 54.487,62.397l0,70.306c0,0 -9.667,58.442 -70.746,60.639l63.276,113.369l-53.609,0l-68.329,-114.467l-36.252,0.22Z" style="fill:#fff;"/><g transform="matrix(6.803799,0,0,6.803799,-5791.311624,-2585.320676)"><g><g transform="matrix(50,0,0,50,969.689726,456.072262)"><path d="M0.079,-0l0,-0.716l0.317,0c0.064,0 0.112,0.006 0.146,0.019c0.033,0.013 0.06,0.036 0.08,0.068c0.02,0.033 0.03,0.069 0.03,0.108c0,0.051 -0.016,0.094 -0.049,0.128c-0.033,0.035 -0.084,0.057 -0.152,0.066c0.025,0.012 0.044,0.024 0.057,0.036c0.028,0.025 0.054,0.057 0.079,0.095l0.125,0.195l-0.119,-0l-0.095,-0.149c-0.028,-0.043 -0.05,-0.076 -0.068,-0.099c-0.018,-0.023 -0.034,-0.039 -0.048,-0.048c-0.014,-0.009 -0.029,-0.015 -0.043,-0.019c-0.011,-0.002 -0.028,-0.003 -0.053,-0.003l-0.11,0l0,0.318l-0.095,-0Zm0.095,-0.4l0.204,0c0.043,0 0.077,-0.004 0.102,-0.013c0.024,-0.009 0.043,-0.023 0.056,-0.043c0.013,-0.02 0.019,-0.041 0.019,-0.064c0,-0.034 -0.012,-0.062 -0.037,-0.083c-0.025,-0.022 -0.063,-0.033 -0.116,-0.033l-0.227,0l0,0.237Z" style="fill:#fff;fill-rule:nonzero;"/></g><g transform="matrix(50,0,0,50,1005.798125,456.072262)"><path d="M0.033,-0.259c0,-0.096 0.027,-0.167 0.08,-0.213c0.045,-0.038 0.099,-0.058 0.163,-0.058c0.071,0 0.13,0.023 0.175,0.07c0.045,0.047 0.068,0.111 0.068,0.194c0,0.067 -0.01,0.119 -0.03,0.157c-0.02,0.038 -0.049,0.068 -0.087,0.089c-0.038,0.021 -0.08,0.032 -0.125,0.032c-0.073,0 -0.131,-0.023 -0.176,-0.07c-0.045,-0.047 -0.067,-0.114 -0.067,-0.201Zm0.09,0c0,0.066 0.014,0.116 0.043,0.149c0.029,0.033 0.065,0.05 0.109,0.05c0.044,0 0.08,-0.017 0.109,-0.05c0.029,-0.033 0.043,-0.084 0.043,-0.152c0,-0.064 -0.015,-0.113 -0.044,-0.146c-0.029,-0.033 -0.065,-0.05 -0.109,-0.05c-0.044,0 -0.08,0.016 -0.109,0.049c-0.029,0.033 -0.043,0.083 -0.043,0.149Z" style="fill:#fff;fill-rule:nonzero;"/></g><g transform="matrix(50,0,0,50,1033.605742,456.072262)"><path d="M0.147,-0l-0.082,-0l0,-0.716l0.088,0l0,0.255c0.037,-0.047 0.084,-0.07 0.142,-0.07c0.032,0 0.062,0.006 0.091,0.019c0.028,0.013 0.052,0.031 0.07,0.054c0.018,0.023 0.033,0.051 0.043,0.084c0.01,0.033 0.016,0.068 0.016,0.105c0,0.089 -0.022,0.158 -0.066,0.206c-0.044,0.049 -0.097,0.073 -0.158,0.073c-0.061,0 -0.109,-0.026 -0.144,-0.077l0,0.065Zm-0.001,-0.263c0,0.062 0.008,0.107 0.025,0.135c0.028,0.045 0.065,0.068 0.112,0.068c0.038,0 0.072,-0.017 0.1,-0.05c0.028,-0.033 0.042,-0.083 0.042,-0.149c0,-0.068 -0.013,-0.118 -0.04,-0.15c-0.027,-0.032 -0.059,-0.048 -0.097,-0.048c-0.038,0 -0.072,0.017 -0.1,0.05c-0.028,0.033 -0.042,0.082 -0.042,0.145Z" style="fill:#fff;fill-rule:nonzero;"/></g><g transform="matrix(50,0,0,50,1061.413359,456.072262)"><path d="M0.033,-0.259c0,-0.096 0.027,-0.167 0.08,-0.213c0.045,-0.038 0.099,-0.058 0.163,-0.058c0.071,0 0.13,0.023 0.175,0.07c0.045,0.047 0.068,0.111 0.068,0.194c0,0.067 -0.01,0.119 -0.03,0.157c-0.02,0.038 -0.049,0.068 -0.087,0.089c-0.038,0.021 -0.08,0.032 -0.125,0.032c-0.073,0 -0.131,-0.023 -0.176,-0.07c-0.045,-0.047 -0.067,-0.114 -0.067,-0.201Zm0.09,0c0,0.066 0.014,0.116 0.043,0.149c0.029,0.033 0.065,0.05 0.109,0.05c0.044,0 0.08,-0.017 0.109,-0.05c0.029,-0.033 0.043,-0.084 0.043,-0.152c0,-0.064 -0.015,-0.113 -0.044,-0.146c-0.029,-0.033 -0.065,-0.05 -0.109,-0.05c-0.044,0 -0.08,0.016 -0.109,0.049c-0.029,0.033 -0.043,0.083 -0.043,0.149Z" style="fill:#fff;fill-rule:nonzero;"/></g></g><g><g transform="matrix(50,0,0,50,1089.220976,456.072262)"><path d="M0.073,-0l0,-0.716l0.269,0c0.055,0 0.099,0.007 0.132,0.022c0.033,0.014 0.059,0.037 0.078,0.067c0.019,0.03 0.028,0.062 0.028,0.094c0,0.031 -0.008,0.059 -0.025,0.086c-0.017,0.027 -0.042,0.049 -0.075,0.065c0.043,0.013 0.077,0.034 0.1,0.065c0.023,0.031 0.035,0.067 0.035,0.108c0,0.034 -0.007,0.065 -0.021,0.094c-0.014,0.029 -0.032,0.051 -0.052,0.067c-0.021,0.016 -0.047,0.027 -0.078,0.035c-0.031,0.008 -0.07,0.012 -0.115,0.012l-0.273,-0Zm0.095,-0.415l0.155,0c0.042,0 0.072,-0.003 0.09,-0.008c0.024,-0.007 0.042,-0.019 0.054,-0.036c0.012,-0.017 0.018,-0.037 0.018,-0.062c0,-0.024 -0.006,-0.045 -0.017,-0.063c-0.011,-0.018 -0.028,-0.03 -0.049,-0.037c-0.021,-0.007 -0.057,-0.01 -0.109,-0.01l-0.143,0l0,0.216Zm0,0.331l0.178,0c0.031,0 0.052,-0.001 0.064,-0.003c0.022,-0.004 0.04,-0.01 0.055,-0.02c0.015,-0.009 0.027,-0.022 0.036,-0.04c0.009,-0.017 0.014,-0.038 0.014,-0.06c0,-0.027 -0.007,-0.05 -0.021,-0.07c-0.014,-0.02 -0.033,-0.034 -0.057,-0.042c-0.024,-0.008 -0.059,-0.012 -0.105,-0.012l-0.166,0l0,0.246Z" style="fill:url(#_Linear3);fill-rule:nonzero;"/></g><g transform="matrix(50,0,0,50,1122.570585,456.072262)"><rect x="0.064" y="-0.716" width="0.088" height="0.716" style="fill:url(#_Linear4);fill-rule:nonzero;"/></g><g transform="matrix(50,0,0,50,1133.678984,456.072262)"><path d="M0.033,-0.259c0,-0.096 0.027,-0.167 0.08,-0.213c0.045,-0.038 0.099,-0.058 0.163,-0.058c0.071,0 0.13,0.023 0.175,0.07c0.045,0.047 0.068,0.111 0.068,0.194c0,0.067 -0.01,0.119 -0.03,0.157c-0.02,0.038 -0.049,0.068 -0.087,0.089c-0.038,0.021 -0.08,0.032 -0.125,0.032c-0.073,0 -0.131,-0.023 -0.176,-0.07c-0.045,-0.047 -0.067,-0.114 -0.067,-0.201Zm0.09,0c0,0.066 0.014,0.116 0.043,0.149c0.029,0.033 0.065,0.05 0.109,0.05c0.044,0 0.08,-0.017 0.109,-0.05c0.029,-0.033 0.043,-0.084 0.043,-0.152c0,-0.064 -0.015,-0.113 -0.044,-0.146c-0.029,-0.033 -0.065,-0.05 -0.109,-0.05c-0.044,0 -0.08,0.016 -0.109,0.049c-0.029,0.033 -0.043,0.083 -0.043,0.149Z" style="fill:url(#_Linear5);fill-rule:nonzero;"/></g><g transform="matrix(50,0,0,50,1161.486601,456.072262)"><path d="M0.404,-0.19l0.086,0.011c-0.009,0.06 -0.034,0.106 -0.073,0.14c-0.039,0.034 -0.087,0.051 -0.143,0.051c-0.071,0 -0.128,-0.023 -0.171,-0.07c-0.043,-0.046 -0.065,-0.113 -0.065,-0.199c0,-0.056 0.009,-0.105 0.028,-0.147c0.019,-0.042 0.047,-0.073 0.085,-0.094c0.038,-0.021 0.079,-0.031 0.124,-0.031c0.056,0 0.102,0.014 0.138,0.043c0.036,0.028 0.059,0.069 0.069,0.121l-0.085,0.013c-0.008,-0.035 -0.023,-0.061 -0.043,-0.079c-0.021,-0.018 -0.046,-0.026 -0.075,-0.026c-0.044,0 -0.08,0.016 -0.108,0.048c-0.028,0.032 -0.042,0.082 -0.042,0.151c0,0.07 0.013,0.12 0.04,0.152c0.027,0.032 0.062,0.047 0.104,0.047c0.035,0 0.063,-0.011 0.086,-0.032c0.023,-0.021 0.038,-0.054 0.044,-0.098Z" style="fill:url(#_Linear6);fill-rule:nonzero;"/></g><g transform="matrix(50,0,0,50,1186.486601,456.072262)"><path d="M0.066,-0l0,-0.716l0.088,0l0,0.408l0.208,-0.211l0.114,0l-0.198,0.192l0.218,0.326l-0.108,-0l-0.171,-0.265l-0.062,0.06l0,0.206l-0.088,-0Z" style="fill:url(#_Linear7);fill-rule:nonzero;"/></g><g transform="matrix(50,0,0,50,1211.486601,456.072262)"><path d="M0.031,-0.155l0.087,-0.014c0.005,0.035 0.018,0.062 0.041,0.08c0.022,0.019 0.053,0.028 0.094,0.028c0.04,0 0.07,-0.008 0.09,-0.025c0.02,-0.016 0.029,-0.036 0.029,-0.058c0,-0.02 -0.009,-0.035 -0.026,-0.047c-0.012,-0.008 -0.042,-0.018 -0.09,-0.03c-0.064,-0.016 -0.109,-0.03 -0.134,-0.042c-0.025,-0.012 -0.044,-0.028 -0.057,-0.049c-0.013,-0.021 -0.019,-0.044 -0.019,-0.07c0,-0.023 0.005,-0.045 0.016,-0.064c0.011,-0.02 0.025,-0.036 0.043,-0.049c0.014,-0.01 0.032,-0.019 0.056,-0.026c0.024,-0.007 0.049,-0.01 0.076,-0.01c0.041,0 0.076,0.006 0.107,0.018c0.031,0.012 0.053,0.028 0.068,0.048c0.015,0.02 0.025,0.047 0.03,0.08l-0.086,0.012c-0.004,-0.027 -0.015,-0.048 -0.034,-0.062c-0.019,-0.015 -0.045,-0.022 -0.079,-0.022c-0.04,0 -0.069,0.007 -0.086,0.02c-0.017,0.013 -0.026,0.029 -0.026,0.047c0,0.011 0.004,0.022 0.011,0.031c0.007,0.009 0.018,0.017 0.034,0.023c0.009,0.003 0.035,0.011 0.078,0.022c0.062,0.017 0.106,0.03 0.13,0.041c0.025,0.011 0.044,0.026 0.058,0.046c0.014,0.02 0.021,0.045 0.021,0.075c0,0.029 -0.009,0.057 -0.026,0.083c-0.017,0.026 -0.042,0.046 -0.074,0.06c-0.032,0.014 -0.069,0.021 -0.109,0.021c-0.067,0 -0.119,-0.014 -0.154,-0.042c-0.035,-0.028 -0.058,-0.069 -0.068,-0.125Z" style="fill:url(#_Linear8);fill-rule:nonzero;"/></g></g></g><g transform="matrix(0.387184,0,0,0.387184,1585.12669,355.96569)"><g><g transform="matrix(340.189973,0,0,340.189973,1818.853046,797.563748)"><rect x="0.069" y="-0.784" width="0.145" height="0.784" style="fill:#fa9b1f;fill-rule:nonzero;"/></g><g transform="matrix(340.189973,0,0,340.189973,2003.236011,797.563748)"><path d="M0.214,-0l-0.145,-0l0,-0.784l0.434,0c0.12,-0 0.18,0.06 0.18,0.179l0,0.428c0,0.118 -0.06,0.177 -0.18,0.177l-0.24,-0l0,-0.145l0.24,0c0.023,0 0.035,-0.011 0.035,-0.032l0,-0.428c0,-0.023 -0.012,-0.034 -0.035,-0.034l-0.289,0l0,0.639Z" style="fill:#fa9b1f;fill-rule:nonzero;"/></g><g transform="matrix(340.189973,0,0,340.189973,2347.168074,797.563748)"><path d="M0.069,-0.784l0.48,0l0,0.145l-0.335,0l0,0.153l0.326,0l0,0.145l-0.326,0l0,0.196l0.34,0l0,0.145l-0.485,-0l0,-0.784Z" style="fill:#fa9b1f;fill-rule:nonzero;"/></g></g></g><defs><linearGradient id="_Linear1" x1="0" y1="0" x2="1" y2="0" gradientUnits="userSpaceOnUse" gradientTransform="matrix(378.607263,-372.961843,372.961843,378.607263,6.346425,624.993588)"><stop offset="0" style="stop-color:#833cec;stop-opacity:1"/><stop offset="1" style="stop-color:#4b00ba;stop-opacity:1"/></linearGradient><linearGradient id="_Linear2" x1="0" y1="0" x2="1" y2="0" gradientUnits="userSpaceOnUse" gradientTransform="matrix(134.09864,-336.204823,336.204823,134.09864,343.047864,519.091957)"><stop offset="0" style="stop-color:#5dcedb;stop-opacity:1"/><stop offset="1" style="stop-color:#0ca9bb;stop-opacity:1"/></linearGradient><linearGradient id="_Linear3" x1="0" y1="0" x2="1" y2="0" gradientUnits="userSpaceOnUse" gradientTransform="matrix(2.276054,-0.824528,0.824528,2.276054,0.065217,0.108708)"><stop offset="0" style="stop-color:#c481ff;stop-opacity:1"/><stop offset="1" style="stop-color:#5dcedb;stop-opacity:1"/></linearGradient><linearGradient id="_Linear4" x1="0" y1="0" x2="1" y2="0" gradientUnits="userSpaceOnUse" gradientTransform="matrix(2.276054,-0.824528,0.824528,2.276054,-0.601775,0.108708)"><stop offset="0" style="stop-color:#c481ff;stop-opacity:1"/><stop offset="1" style="stop-color:#5dcedb;stop-opacity:1"/></linearGradient><linearGradient id="_Linear5" x1="0" y1="0" x2="1" y2="0" gradientUnits="userSpaceOnUse" gradientTransform="matrix(2.276054,-0.824528,0.824528,2.276054,-0.823943,0.108708)"><stop offset="0" style="stop-color:#c481ff;stop-opacity:1"/><stop offset="1" style="stop-color:#5dcedb;stop-opacity:1"/></linearGradient><linearGradient id="_Linear6" x1="0" y1="0" x2="1" y2="0" gradientUnits="userSpaceOnUse" gradientTransform="matrix(2.276054,-0.824528,0.824528,2.276054,-1.380095,0.108708)"><stop offset="0" style="stop-color:#c481ff;stop-opacity:1"/><stop offset="1" style="stop-color:#5dcedb;stop-opacity:1"/></linearGradient><linearGradient id="_Linear7" x1="0" y1="0" x2="1" y2="0" gradientUnits="userSpaceOnUse" gradientTransform="matrix(2.276054,-0.824528,0.824528,2.276054,-1.880095,0.108708)"><stop offset="0" style="stop-color:#c481ff;stop-opacity:1"/><stop offset="1" style="stop-color:#5dcedb;stop-opacity:1"/></linearGradient><linearGradient id="_Linear8" x1="0" y1="0" x2="1" y2="0" gradientUnits="userSpaceOnUse" gradientTransform="matrix(2.276054,-0.824528,0.824528,2.276054,-2.380095,0.108708)"><stop offset="0" style="stop-color:#c481ff;stop-opacity:1"/><stop offset="1" style="stop-color:#5dcedb;stop-opacity:1"/></linearGradient></defs></svg>